Coordinates
version=1
nRows=19
nColumns=24
inDegrees=yes

Units are S.I. units (second, meters, Newtons, ...)
Angles are in degrees.

endheader
time	pelvis_tilt	pelvis_list	pelvis_rotation	pelvis_tx	pelvis_ty	pelvis_tz	hip_flexion_r	hip_adduction_r	hip_rotation_r	knee_angle_r	ankle_angle_r	subtalar_angle_r	mtp_angle_r	hip_flexion_l	hip_adduction_l	hip_rotation_l	knee_angle_l	ankle_angle_l	subtalar_angle_l	mtp_angle_l	lumbar_extension	lumbar_bending	lumbar_rotation
      1.32316667	     -1.07791946	     -1.21084601	     -5.17129020	      0.91200432	      0.96942159	      0.32868911	    -19.46718199	      1.76843084	      0.62655750	     -6.19716603	     16.87686345	     -0.03145260	      4.73567327	     25.17991551	     -3.43334693	     -2.27147462	      8.24779295	      1.67220919	     -2.27773617	      1.47237526	    -13.07510599	      6.68150938	      9.39013670
      1.32733333	     -1.08442753	     -1.10136336	     -5.22628305	      0.91793141	      0.96870454	      0.32832610	    -19.68504696	      1.56914403	      0.59511785	     -6.43977683	     16.74741309	     -0.01291361	      4.77862805	     25.26188416	     -3.30762551	     -2.04030550	      7.74993284	      1.74273615	     -2.38962688	      1.47912723	    -13.02598305	      6.50507651	      9.40479516
      1.33150000	     -1.09441432	     -0.97660009	     -5.26809219	      0.92390416	      0.96800262	      0.32792300	    -19.89041019	      1.35671252	      0.52976465	     -6.70152448	     16.60462421	      0.04399774	      4.83043600	     25.34580969	     -3.15709125	     -1.78523625	      7.21135822	      1.77166471	     -2.54170462	      1.48862408	    -12.97746798	      6.32330858	      9.44071776
      1.33566667	     -1.10560170	     -0.84604534	     -5.30758213	      0.92991865	      0.96729406	      0.32745591	    -20.05510699	      1.12702552	      0.35701583	     -7.05084824	     16.56165198	      0.37098629	      5.10738983	     25.39699787	     -2.99397428	     -1.39506056	      6.71829577	      1.62008059	     -2.97234669	      1.52475925	    -12.92047340	      6.11308728	      9.55724532
      1.33983333	     -1.12809796	     -0.69197002	     -5.34377427	      0.93599909	      0.96661273	      0.32700322	    -20.23189171	      0.88359593	      0.26433353	     -7.34306182	     16.39812262	      0.46244825	      5.44427620	     25.46442215	     -2.80272297	     -1.05587932	      6.17325977	      1.46917351	     -3.34257045	      1.57978712	    -12.84895992	      5.88994886	      9.58589351
      1.34400000	     -1.13456395	     -0.54672831	     -5.40053548	      0.94209214	      0.96597884	      0.32656374	    -20.39157118	      0.63981317	      0.16938619	     -7.70571569	     16.21971293	      0.54997575	      5.96191187	     25.50296548	     -2.62246599	     -0.74312249	      5.63105094	      1.24102048	     -3.77824361	      1.66921478	    -12.77867543	      5.66669724	      9.64954964
      1.34816667	     -1.16292306	     -0.36891141	     -5.43342092	      0.94827737	      0.96534327	      0.32609867	    -20.56302251	      0.37770555	      0.10970129	     -7.99328676	     15.97471653	      0.52631252	      6.10416479	     25.59277331	     -2.39708372	     -0.52512101	      5.00467567	      1.05701080	     -3.96183501	      1.69692379	    -12.68070942	      5.40959441	      9.65049804
      1.35233333	     -1.19420079	     -0.20057493	     -5.47539889	      0.95446902	      0.96472215	      0.32559000	    -20.69276639	      0.11502603	     -0.00788476	     -8.35860629	     15.77707146	      0.63067918	      6.49929232	     25.64988720	     -2.17551083	     -0.18032671	      4.44244926	      0.61328176	     -4.58235811	      1.77961177	    -12.57686756	      5.18786760	      9.72521249
      1.35650000	     -1.22766792	     -0.01282873	     -5.51110322	      0.96071412	      0.96412854	      0.32506892	    -20.81716650	     -0.16306858	     -0.11439056	     -8.72660288	     15.50552489	      0.65483135	      7.02663577	     25.70359000	     -1.92795124	      0.14312410	      3.87765683	      0.15217112	     -5.16777158	      1.89793281	    -12.47183638	      4.93248121	      9.75099833
      1.36066667	     -1.25599197	      0.19240797	     -5.55669897	      0.96700389	      0.96357074	      0.32454338	    -20.93219060	     -0.46415488	     -0.22709445	     -9.12205462	     15.21118916	      0.67312640	      7.65708391	     25.75159820	     -1.66171043	      0.43359931	      3.30249266	     -0.37646852	     -5.75027966	      2.04482509	    -12.35589392	      4.65529345	      9.79741911
      1.36483333	     -1.28008303	      0.41787059	     -5.57613002	      0.97334104	      0.96304629	      0.32399718	    -21.05650883	     -0.77339937	     -0.35705921	     -9.49296070	     14.77672756	      0.51432823	     13.15753943	     25.81849363	     -1.36174247	      0.62728914	      2.67812494	     -0.90843377	     -6.14247333	      3.40852140	    -12.25801510	      4.36013896	      9.75758045
      1.36900000	     -1.35400083	      0.64012694	     -5.62293115	      0.97970947	      0.96249951	      0.32345036	    -21.10644589	     -1.08677475	     -0.45314800	     -9.91039356	     14.41934443	      0.52010371	     13.22369868	     25.92494408	     -1.07424648	      0.84040657	      2.07336743	     -1.56158742	     -6.73179499	      3.40852734	    -12.08122040	      4.06529668	      9.83632645
      1.37316667	     -1.40864576	      0.88498072	     -5.65468379	      0.98611357	      0.96200342	      0.32287166	    -21.16405492	     -1.41960405	     -0.58134616	    -10.35271579	     14.04145811	      0.49061701	     13.35592066	     26.00191923	     -0.75191227	      1.07374515	      1.49139919	     -2.29783929	     -7.39630194	      3.42254066	    -11.92829052	      3.74873501	      9.85301520
      1.37733333	     -1.47651532	      1.14259244	     -5.68602682	      0.99254684	      0.96152435	      0.32228403	    -21.18813018	     -1.76366577	     -0.71409443	    -10.83012224	     13.63230968	      0.44297766	     13.55060039	     26.09934080	     -0.41537660	      1.27663004	      0.89334544	     -3.07474032	     -8.04684142	      3.45246912	    -11.75246142	      3.41662481	      9.87316111
      1.38150000	     -1.54417584	      1.41351744	     -5.71104545	      0.99900818	      0.96108350	      0.32166762	    -21.19723226	     -2.11975422	     -0.85936667	    -11.33193893	     13.18081828	      0.37464306	     13.83761928	     26.19573084	     -0.05911873	      1.48900016	      0.29710953	     -3.90197985	     -8.74948594	      3.50633097	    -11.58288429	      3.07697027	      9.89017747
      1.38566667	     -1.62375500	      1.69400020	     -5.72701193	      1.00549046	      0.96066029	      0.32104263	    -21.18267428	     -2.47909711	     -1.00301973	    -11.85124258	     12.70723155	      0.28211205	     14.18615770	     26.32265310	      0.31053153	      1.64250271	     -0.33487065	     -4.74674287	     -9.41930102	      3.56828922	    -11.38611282	      2.72246094	      9.89261710
      1.38983333	     -1.69634448	      1.99512767	     -5.75085031	      1.01200483	      0.96028325	      0.32039909	    -21.14266869	     -2.86741051	     -1.17789459	    -12.42842309	     12.15613585	      0.18915843	     14.73567021	     26.42680015	      0.70112937	      1.84009652	     -0.93939683	     -5.56933022	    -10.14201473	      3.65517719	    -11.20523811	      2.34228116	      9.91111361
      1.39400000	     -1.79098828	      2.30152531	     -5.76386856	      1.01855257	      0.95992445	      0.31976453	    -21.08396834	     -3.24774896	     -1.31019997	    -12.99154737	     11.63930833	      0.04265843	     15.23573698	     26.59074994	      1.09653588	      1.88923479	     -1.61741610	     -6.44680922	    -10.75545939	      3.72261941	    -10.97217155	      1.96268046	      9.90651233
      1.39816667	     -1.70625839	      2.69052506	     -5.77508732	      1.02519525	      0.95982975	      0.31909751	    -21.21779028	     -3.74117945	     -1.57786916	    -13.53021738	     10.94602030	     -0.03014135	     20.11299882	     26.52635339	      1.59869614	      1.95411989	     -2.21980903	     -7.27899161	    -11.42481996	      4.40249344	    -10.96896075	      1.47356115	      9.76774758
